<svg width="32" height="32" viewBox="0 0 32 32" fill="none" xmlns="http://www.w3.org/2000/svg">
<path d="M3 13.9889H2.06V14.9289V15.1818V16.1218V16.2041V17.1441V17.397V18.337H3C4.06448 18.337 4.53076 18.5693 4.71214 18.7617L4.71212 18.7617L4.717 18.7668C4.92527 18.9844 5.14507 19.4846 5.14507 20.5232V23.814C5.14507 24.8153 5.23901 25.717 5.44212 26.5061L5.44209 26.5061L5.44433 26.5145C5.66152 27.3269 6.02327 28.0403 6.55157 28.6214C7.09208 29.216 7.79138 29.6315 8.606 29.8922C9.41299 30.1504 10.3633 30.266 11.4325 30.266H12.3725V29.326V27.3104V26.3704H11.4325C10.7209 26.3704 10.2716 26.2542 10.0051 26.107L10.0008 26.1047C9.76166 25.9742 9.58493 25.7789 9.46651 25.4647C9.33216 25.0887 9.24632 24.5501 9.24632 23.814V19.7005C9.24632 19.0839 9.16361 18.4985 8.98553 17.9533C8.79037 17.3333 8.42571 16.8092 7.92216 16.388L7.43096 16.9753L7.92216 16.388C7.82673 16.3082 7.72595 16.2333 7.62026 16.163C7.72595 16.0927 7.82673 16.0178 7.92216 15.9379C8.42571 15.5168 8.79037 14.9926 8.98553 14.3726C9.16361 13.8274 9.24632 13.242 9.24632 12.6254V8.512C9.24632 7.77456 9.33246 7.23537 9.46721 6.8593C9.58664 6.53702 9.76366 6.34107 9.99817 6.21243C10.2677 6.06843 10.7203 5.95558 11.4325 5.95558H12.3725V5.01558V3V2.06H11.4325C10.3633 2.06 9.41299 2.17556 8.606 2.4338C7.79138 2.69447 7.09208 3.11 6.55157 3.70455L7.24712 4.33687L6.55157 3.70455C6.02327 4.28569 5.66152 4.999 5.44433 5.81146L5.44429 5.81145L5.44212 5.81988C5.23901 6.60892 5.14507 7.51066 5.14507 8.512V11.8027C5.14507 12.8414 4.92527 13.3415 4.717 13.5591L4.71698 13.5591L4.71214 13.5642C4.53076 13.7566 4.06448 13.9889 3 13.9889ZM29.9867 18.337H30.9267V17.397V17.1441V16.2041V16.1218V15.1818V14.9289V13.9889H29.9867C28.9287 13.9889 28.4532 13.7594 28.2618 13.5616C28.0573 13.3426 27.8416 12.84 27.8416 11.8027V8.512C27.8416 7.51024 27.7442 6.60694 27.5332 5.81575C27.3231 5.00199 26.9646 4.287 26.4351 3.70455L25.7396 4.33687L26.4351 3.70455C25.8946 3.11 25.1953 2.69447 24.3807 2.4338C23.5737 2.17556 22.6234 2.06 21.5541 2.06H20.6141V3V5.01558V5.95558H21.5541C22.2699 5.95558 22.7164 6.0696 22.9756 6.21101L22.9756 6.21103L22.9808 6.21383C23.2214 6.34309 23.3945 6.53658 23.5066 6.85223L23.5091 6.8593L23.5118 6.86632C23.6508 7.23874 23.7403 7.775 23.7403 8.512V12.6254C23.7403 13.2401 23.8191 13.8231 23.9888 14.3661L23.9887 14.3661L23.9929 14.3788C24.1952 14.9954 24.5617 15.5174 25.0645 15.9379C25.1599 16.0177 25.2606 16.0926 25.3661 16.163C25.2606 16.2333 25.1599 16.3082 25.0645 16.388C24.5617 16.8085 24.1952 17.3306 23.9929 17.9472L23.9928 17.9472L23.9888 17.9599C23.8191 18.5028 23.7403 19.0858 23.7403 19.7005V23.814C23.7403 24.5509 23.6508 25.0872 23.5118 25.4596L23.5117 25.4596L23.508 25.47C23.3973 25.7774 23.2253 25.9705 22.9808 26.1018L22.9734 26.1058L22.9661 26.1099C22.7095 26.2538 22.267 26.3704 21.5541 26.3704H20.6141V27.3104V29.326V30.266H21.5541C22.6234 30.266 23.5737 30.1504 24.3807 29.8922C25.1953 29.6315 25.8946 29.216 26.4351 28.6214C26.9646 28.0389 27.3231 27.3239 27.5332 26.5102C27.7442 25.719 27.8416 24.8157 27.8416 23.814V20.5232C27.8416 19.486 28.0573 18.9833 28.2618 18.7643C28.4532 18.5665 28.9287 18.337 29.9867 18.337Z" fill="black" stroke="white" stroke-width="1.88"/>
</svg>
